<svg width="36" height="36" viewBox="0 0 36 36" fill="none" xmlns="http://www.w3.org/2000/svg">
<circle cx="18" cy="18" r="18" fill="white"/>
<path d="M16.1244 15.9295V15.1696C15.8606 15.1278 15.5942 15.1049 15.3271 15.1011C12.7418 15.0956 10.453 16.7709 9.67662 19.2369C8.90025 21.7028 9.81666 24.3872 11.9387 25.8637C11.1606 25.0309 10.6401 23.9907 10.4401 22.8686C10.2401 21.7465 10.3692 20.5905 10.8117 19.5401C11.2543 18.4897 11.9914 17.5899 12.934 16.9492C13.8767 16.3085 14.9847 15.9544 16.1242 15.9295L16.1244 15.9295Z" fill="#25F4EE"/>
<path d="M16.2677 24.5373C17.7131 24.5353 18.9013 23.3966 18.9646 21.9525V9.06595H21.3188C21.2707 8.79667 21.2478 8.52352 21.2503 8.25L18.0302 8.25V21.1241C17.9767 22.5755 16.7857 23.7252 15.3333 23.7275C14.8993 23.7238 14.4724 23.6171 14.0877 23.4161C14.337 23.7616 14.6644 24.0432 15.0433 24.238C15.4221 24.4329 15.8417 24.5354 16.2677 24.5373V24.5373ZM25.716 13.4382V12.7219C24.8496 12.7223 24.0024 12.4666 23.2808 11.9871C23.9134 12.7225 24.7682 13.2319 25.716 13.4382V13.4382Z" fill="#25F4EE"/>
<path d="M23.2808 11.987C22.5699 11.1775 22.178 10.1369 22.1784 9.05957H21.3188C21.4298 9.65521 21.6611 10.222 21.9984 10.7253C22.3357 11.2286 22.7721 11.6579 23.2808 11.987V11.987ZM15.3271 18.3212C14.7243 18.3243 14.1397 18.5288 13.6665 18.9023C13.1932 19.2757 12.8583 19.7967 12.7151 20.3823C12.5719 20.9679 12.6286 21.5846 12.8762 22.1343C13.1238 22.684 13.548 23.1351 14.0814 23.4161C13.7898 23.0134 13.6151 22.5379 13.5767 22.0422C13.5384 21.5464 13.6378 21.0497 13.864 20.607C14.0903 20.1642 14.4345 19.7926 14.8587 19.5332C15.2829 19.2738 15.7705 19.1367 16.2677 19.1371C16.538 19.1406 16.8064 19.1827 17.0649 19.2621V15.9856C16.8009 15.946 16.5346 15.9252 16.2677 15.9233H16.1244V18.4146C15.8646 18.3449 15.596 18.3135 15.3271 18.3212V18.3212Z" fill="#FE2C55"/>
<path d="M25.7161 13.4382V15.9296C24.1121 15.9265 22.5497 15.4188 21.2503 14.4784V21.0244C21.2434 24.2908 18.5935 26.9352 15.3271 26.9352C14.114 26.9374 12.9301 26.5631 11.9387 25.8639C12.7471 26.7334 13.7987 27.3394 14.9563 27.6027C16.114 27.8661 17.3242 27.7748 18.4292 27.3406C19.5342 26.9064 20.4829 26.1495 21.1516 25.1685C21.8203 24.1875 22.1781 23.0278 22.1784 21.8406V15.3131C23.4821 16.2473 25.0464 16.7483 26.6503 16.7456V13.5377C26.3363 13.5367 26.0232 13.5034 25.7161 13.4382V13.4382Z" fill="#FE2C55"/>
<path d="M21.2503 21.0243V14.4783C22.5537 15.4133 24.1182 15.9145 25.7223 15.9108V13.4195C24.7746 13.2194 23.9177 12.7166 23.2808 11.987C22.7721 11.6579 22.3357 11.2286 21.9984 10.7253C21.661 10.222 21.4298 9.65521 21.3188 9.05957H18.9646V21.9526C18.9417 22.5138 18.7445 23.0539 18.4005 23.4979C18.0564 23.9419 17.5827 24.2677 17.0449 24.43C16.5072 24.5923 15.9323 24.5831 15.4001 24.4037C14.8678 24.2242 14.4047 23.8834 14.0751 23.4286C13.5416 23.1478 13.1173 22.6966 12.8696 22.1469C12.622 21.5971 12.5653 20.9804 12.7085 20.3947C12.8517 19.809 13.1866 19.288 13.66 18.9146C14.1333 18.5411 14.7179 18.3366 15.3208 18.3337C15.5912 18.3361 15.8598 18.378 16.1181 18.4583V15.9669C14.9724 15.9863 13.8572 16.3386 12.9083 16.9809C11.9595 17.6232 11.218 18.5277 10.7743 19.5841C10.3306 20.6406 10.2039 21.8032 10.4095 22.9304C10.6152 24.0576 11.1444 25.1006 11.9326 25.9323C12.9337 26.6084 14.1193 26.9587 15.3271 26.9351C18.5935 26.9351 21.2434 24.2907 21.2503 21.0243V21.0243Z" fill="black"/>
</svg>
