<svg width="36" height="36" viewBox="0 0 36 36" fill="none" xmlns="http://www.w3.org/2000/svg">
<path d="M0 18C0 8.05887 8.05887 0 18 0C27.9411 0 36 8.05887 36 18C36 27.9411 27.9411 36 18 36C8.05887 36 0 27.9411 0 18Z" fill="#FF0000"/>
<path d="M27.1988 13.5548C26.978 12.7066 26.3274 12.0386 25.5012 11.8119C24.0041 11.3999 18 11.3999 18 11.3999C18 11.3999 11.996 11.3999 10.4987 11.8119C9.67257 12.0386 9.02195 12.7066 8.80115 13.5548C8.40002 15.0922 8.40002 18.2999 8.40002 18.2999C8.40002 18.2999 8.40002 21.5075 8.80115 23.045C9.02195 23.8932 9.67257 24.5612 10.4987 24.788C11.996 25.1999 18 25.1999 18 25.1999C18 25.1999 24.0041 25.1999 25.5012 24.788C26.3274 24.5612 26.978 23.8932 27.1988 23.045C27.6 21.5075 27.6 18.2999 27.6 18.2999C27.6 18.2999 27.6 15.0922 27.1988 13.5548Z" fill="white"/>
<path d="M16.2 21.6001V15.6001L21 18.6002L16.2 21.6001Z" fill="#FF0000"/>
</svg>
