<?xml version="1.0" encoding="utf-8"?>
<!-- Generator: Adobe Illustrator 25.2.3, SVG Export Plug-In . SVG Version: 6.00 Build 0)  -->
<svg version="1.1" id="レイヤー_1" xmlns="http://www.w3.org/2000/svg" xmlns:xlink="http://www.w3.org/1999/xlink" x="0px"
	 y="0px" viewBox="0 0 179.5 17.1" style="enable-background:new 0 0 179.5 17.1;" xml:space="preserve">
<path d="M3,3.8h1.9c1.3,0,2.4,1.1,2.4,2.5c0,1.4-1.1,2.5-2.4,2.5H3V3.8z M3,16.8v-5.1h2.3l3,5.1h3.8l-3.9-6.1
	c1.6-0.8,2.4-2.2,2.4-4.3c0-3-2.5-5.3-5.6-5.3H0v15.7H3z M21.6,16.8h2.6V4.2h-2.6l-0.4,1.2c-0.8-1-1.7-1.5-2.9-1.5
	c-3.2,0-5.9,3-5.9,6.6s2.6,6.6,5.7,6.6c1.3,0,2.3-0.5,3.1-1.5L21.6,16.8z M18.3,6.7c1.7,0,2.9,1.6,2.9,3.8c0,2.2-1.2,3.8-2.9,3.8
	c-1.6,0-2.9-1.7-2.9-3.8S16.7,6.7,18.3,6.7z M39.3,16.8l-6.7-6.7l5.9-5.9h-4.2l-4.3,4.6V0h-3v16.8h3v-5.3l5,5.3H39.3z M48.4,16.8H51
	V4.2h-3v7.4c0,1.5-1.2,2.7-2.6,2.7c-1.4,0-2.4-1.1-2.4-2.7V4.2h-3v7.4c0,3.2,2.1,5.5,5,5.5c1.3,0,2.4-0.5,3.1-1.4L48.4,16.8z
	 M54.8,1.4v2.8h-2.2V7h2.2v6.2c0,0.7,0.1,1.4,0.2,1.8c0.4,1.3,1.7,2.1,3.4,2.1c1.9,0,3-0.7,4.1-2.5l-2.4-1.4
	c-0.4,0.8-0.8,1.1-1.4,1.1c-0.6,0-0.9-0.4-0.9-0.9V7h3.4V4.2h-3.4V1.4H54.8z M66.1,8.8c0.3-1.4,1.2-2.3,2.5-2.3
	c1.3,0,2.1,0.8,2.4,2.3H66.1z M71.4,12.8c-0.7,1-1.5,1.5-2.4,1.5c-1.6,0-2.8-1.1-3-2.9h8.3c0-0.3,0.1-0.6,0.1-0.9
	c0-3.6-2.6-6.6-5.8-6.6c-3.3,0-5.8,2.9-5.8,6.6c0,3.8,2.6,6.6,6.2,6.6c2.1,0,3.7-0.9,5.1-2.8L71.4,12.8z M79,4.2h-2.6v12.6h3V9.4
	c0-1.5,1.2-2.7,2.6-2.7c1.4,0,2.4,1.1,2.4,2.7v7.4h3V9.4c0-3.2-2.1-5.5-5-5.5c-1.3,0-2.4,0.5-3.1,1.4L79,4.2z M105.5,3.8V1H93.9v2.8
	h4.3v12.9h3V3.8H105.5z M119.3,1H116l-3.1,11.9L109.7,1h-3.3l4.5,15.7h3.9L119.3,1z M125.7,1v15.7h3V6.7l5.6,10.1h3V1h-3v9.6
	L128.7,1H125.7z M142.7,8.8c0.3-1.4,1.2-2.3,2.5-2.3c1.3,0,2.1,0.8,2.4,2.3H142.7z M148,12.8c-0.7,1-1.5,1.5-2.4,1.5
	c-1.6,0-2.8-1.1-3-2.9h8.3c0-0.3,0.1-0.6,0.1-0.9c0-3.6-2.6-6.6-5.8-6.6c-3.3,0-5.8,2.9-5.8,6.6c0,3.8,2.6,6.6,6.2,6.6
	c2.1,0,3.7-0.9,5.1-2.8L148,12.8z M151.6,4.2l3.4,12.6h3.3l1.9-6.8l1.9,6.8h3.3l3.4-12.6h-3.2l-2,8.2l-2.3-8.2H159l-2.3,8.2l-2-8.2
	H151.6z M179,5.7c-1.4-1.2-2.8-1.8-4.5-1.8c-2.6,0-4.6,1.6-4.6,3.8c0,1.1,0.4,2,1.4,2.7c0.6,0.4,1,0.6,2.7,1.2
	c1.9,0.6,2.3,1,2.3,1.6c0,0.7-0.6,1.1-1.7,1.1c-1.3,0-2.4-0.6-3.1-1.7l-2,1.9c1.2,1.7,2.9,2.5,5.1,2.5c3,0,5-1.6,5-3.9
	c0-1.3-0.7-2.4-2-3.1c-0.7-0.4-1.6-0.7-3.1-1.1c-0.9-0.3-1.3-0.6-1.3-1.2c0-0.6,0.6-1,1.4-1c0.9,0,1.6,0.4,2.5,1.3L179,5.7z"/>
</svg>
