<svg width="24" height="19" viewBox="0 0 24 19" fill="none" xmlns="http://www.w3.org/2000/svg">
<path fill-rule="evenodd" clip-rule="evenodd" d="M1.55104 4.1019C0.848335 3.82657 0.105551 4.39914 0.192946 5.14878L1.70466 18.1157C1.76343 18.6198 2.19045 18.9999 2.69793 18.9999H11.75H20.8022C21.3097 18.9999 21.7367 18.6198 21.7954 18.1157L23.3072 5.14878C23.3945 4.39914 22.6518 3.82657 21.9491 4.1019L17.4853 5.85089C17.0833 6.00843 16.6255 5.89009 16.3502 5.55745L12.5204 0.930603C12.1205 0.447449 11.3796 0.447449 10.9797 0.930603L7.14992 5.55745C6.87458 5.89009 6.41682 6.00843 6.01476 5.85089L1.55104 4.1019Z" fill="#F59600"/>
</svg>
