<svg width="142" height="32" viewBox="0 0 142 32" fill="none" xmlns="http://www.w3.org/2000/svg">
<path d="M123.422 8.20903C123.346 7.52494 123.346 7.2209 123.879 6.91686C124.26 6.68884 126.163 5.54869 129.742 4.48456C130.198 4.33254 130.579 4.40855 130.808 4.71259C131.036 5.01663 131.112 5.47268 130.96 5.85273C130.655 6.61283 130.579 7.2209 130.884 7.52494C131.188 7.75297 131.493 7.82898 132.406 7.37292C133.625 6.76485 134.995 5.16865 134.919 2.58432C134.919 1.67221 134.538 0.988124 133.929 0.532067C133.32 0.152019 132.483 -1.13263e-09 131.645 -1.13263e-09C129.361 -1.13263e-09 128.219 0.532066 125.249 1.67221C121.062 3.1924 115.808 4.86461 112.915 5.6247C111.697 5.92874 110.707 6.76485 110.707 7.981C110.707 9.88124 112.991 10.4133 114.59 9.88124C114.894 9.80523 118.168 8.58907 119.31 8.43705C119.463 8.43705 119.539 8.51306 119.539 8.58907C119.539 8.74109 119.615 10.4133 119.691 11.0974C119.843 14.2138 120.072 20.2945 120.072 20.6746C120.148 21.5107 120.148 24.019 121.519 24.019C122.813 24.019 123.422 22.6508 123.727 20.6746C124.183 17.8622 123.803 13.9097 123.65 10.7173C123.574 9.95724 123.422 8.20903 123.422 8.20903Z" fill="white"/>
<path d="M140.629 3.19238C138.878 3.19238 137.279 6.38478 136.061 9.19713C134.538 12.7696 133.701 15.962 133.244 17.0261C132.863 15.962 131.797 12.9216 131.264 11.8575C130.351 9.95723 129.437 8.51305 128.219 8.51305C127.533 8.51305 126.772 8.8931 126.772 10.1092C126.772 10.9454 127.153 12.0095 127.533 12.9976C127.686 13.3016 129.97 18.9264 130.275 19.9905C130.275 19.9905 131.417 23.4109 131.493 23.7149C132.178 25.7672 132.787 25.9952 133.244 25.9952C133.929 25.9952 134.919 25.6912 135.376 23.6389C135.68 22.3468 136.137 20.8266 136.518 19.5344C137.203 17.3302 138.878 13.0736 140.02 10.4893C140.934 8.43704 142 6.00473 142 4.48454C142 3.95248 141.695 3.19238 140.629 3.19238Z" fill="white"/>
<path d="M84.7432 26.9075H21.0145L26.1159 32.0001L84.7432 26.9075Z" fill="white"/>
<path d="M26.9534 6.4607V7.22079C25.7351 6.4607 24.7453 6.00464 23.2225 6.00464C18.7303 6.00464 15.3802 10.0331 15.3802 15.0498C15.3802 20.0664 18.8065 24.0949 23.2225 24.0949C24.6692 24.0949 25.7351 23.6388 26.9534 22.8787V23.6388H30.8365V6.4607H26.9534ZM23.2225 19.9904C21.0145 19.9904 19.4156 17.8621 19.4156 15.1258C19.4156 12.3894 21.0145 10.2612 23.2225 10.2612C25.4306 10.2612 26.9534 12.3894 26.9534 15.1258C27.0295 17.7861 25.4306 19.9904 23.2225 19.9904Z" fill="white"/>
<path d="M58.3228 6.46069V16.57C58.3228 18.4702 57.0284 20.0664 55.1249 20.0664C53.2215 20.0664 51.9271 18.4702 51.9271 16.57V6.46069H47.9678V16.57C47.9678 20.7505 50.785 24.0949 54.9727 24.0949C56.8761 24.0949 58.3228 23.0308 58.3228 23.0308V23.6388H62.2059V6.46069H58.3228Z" fill="white"/>
<path d="M94.8697 23.7149V13.5296C94.8697 11.6293 96.1641 10.0331 98.0675 10.0331C99.971 10.0331 101.265 11.6293 101.265 13.5296V23.6388H105.225V13.5296C105.225 9.34906 102.407 6.00464 98.2198 6.00464C96.3163 6.00464 94.8697 7.06877 94.8697 7.06877V6.4607H90.9866V23.7149H94.8697Z" fill="white"/>
<path d="M4.11153 23.7151V17.0263H7.00483L12.03 23.7151H17.1314L11.0402 15.6581C12.9437 14.2899 14.1619 12.0857 14.1619 9.57735C14.1619 5.47284 10.8118 2.12842 6.70027 2.12842H0V23.6391H4.11153V23.7151ZM4.11153 6.23293H6.77641C8.60375 6.23293 10.1265 7.75312 10.1265 9.57735C10.1265 11.4016 8.60375 12.9218 6.77641 12.9218H4.11153V6.23293Z" fill="white"/>
<path d="M72.8655 19.6106C72.4848 19.8386 72.1041 20.0667 71.5711 20.0667C70.962 20.0667 69.7437 19.6106 69.7437 17.9384V10.5655H73.0939V6.46096H69.7437V2.12842H65.8606V6.46096H63.8049V10.5655H65.8606V18.0144C65.8606 21.8909 68.7539 24.1712 71.7234 24.1712C72.7893 24.1712 74.3121 23.7911 75.5303 23.107L72.8655 19.6106Z" fill="white"/>
<path d="M40.5823 14.5177L47.3587 6.46072H41.8767L37.1561 12.4655V0.76001H33.1207V23.7149H37.1561V16.646L42.9426 23.7149H48.4247L40.5823 14.5177Z" fill="white"/>
<path d="M81.926 6.00464C77.3576 6.00464 74.1597 9.95713 74.1597 15.0498C74.1597 20.3704 78.2713 24.0949 82.3066 24.0949C84.3624 24.0949 87.0273 23.4108 89.2353 20.2184L85.8091 18.2422C83.1442 22.1947 78.652 20.2184 78.119 16.2659H89.3876C90.3774 10.1092 86.342 6.00464 81.926 6.00464ZM85.3522 12.8455H78.2713C79.1088 8.81699 84.5908 8.58896 85.3522 12.8455Z" fill="white"/>
</svg>
