<svg width="18" height="18" viewBox="0 0 18 18" fill="none" xmlns="http://www.w3.org/2000/svg">
<path fill-rule="evenodd" clip-rule="evenodd" d="M1.92891 0.514725C1.53841 0.124222 0.905228 0.124222 0.514725 0.514725C0.124161 0.905289 0.124161 1.53841 0.514725 1.92897L7.58577 9.00002L0.514725 16.0711C0.124222 16.4616 0.124222 17.0947 0.514725 17.4852C0.905228 17.8758 1.53841 17.8758 1.92897 17.4852L9.00002 10.4142L16.0711 17.4853C16.4616 17.8758 17.0947 17.8758 17.4852 17.4853C17.8758 17.0948 17.8758 16.4616 17.4852 16.0711L10.4142 9.00002L17.4853 1.92891C17.8758 1.53841 17.8758 0.905228 17.4853 0.514725C17.0947 0.124161 16.4616 0.124161 16.0711 0.514725L9.00002 7.58583L1.92891 0.514725Z" fill="white"/>
</svg>
